:SAMPLES-PER-SECOND 30
:FRAME-RANGE 1-2775
:FULLY-SPECIFIED
:DEGREES
2689
root  -3.52978 38.3281 34.1628 165.287 76.4983 162.044
RightUpLeg  -8.36665 -7.74567 -3.91531
RightLeg  59.9823 1.04706 1.47312
RightFoot  0.668888 -1.57835 14.9692
RightToes  1.218e-010 1.26228e-014 -6.01869e-014
Spine  -5.73492 5.95835 4.69276
Spine1  12.4915 7.94171 -8.01797
HEad  -2.73406 65.3362 -19.7367
LeftShoulder1  0.0384904 3.17632 -24.1957
LeftArm  -1.96443 8.68629 -48.9288
LeftForeArm  34.7089 5.23159 -12.9353
LeftHand  -0.0325902 5.05516 2.70965
RightShoulder  2.34753 4.50029 24.0005
RightArm  -27.2183 11.6243 59.5925
RightForeArm  66.0491 -5.0669 1.20597
RightHand  0.111593 -6.29445 -16.3345
LeftUpLeg  -23.8207 -2.78607 -8.66774
LeftLeg  20.4171 11.7074 5.0929
LeftFoot  -0.0795833 -0.459523 4.66316
LeftToes  5.08156e-010 -6.90346e-011 -6.33378e-011
2690
root  -2.68994 38.2926 34.1193 165.69 74.7808 162.687
RightUpLeg  -11.8604 -8.60379 -4.78715
RightLeg  65.2049 0.575339 0.748378
RightFoot  1.16936 -1.44309 13.1849
RightToes  1.218e-010 1.26228e-014 -6.01869e-014
Spine  -5.61592 5.68754 3.96308
Spine1  12.8606 7.62101 -8.06438
HEad  -0.975055 65.699 -18.0563
LeftShoulder1  0.048897 3.14159 -24.1373
LeftArm  -1.45915 6.41295 -49.4861
LeftForeArm  35.7319 3.4217 -12.9262
LeftHand  -0.0416268 4.77987 3.64703
RightShoulder  2.35761 4.49476 24.1595
RightArm  -28.752 10.6828 58.4479
RightForeArm  66.4751 -4.91341 0.396278
RightHand  0.128777 -6.39175 -16.7051
LeftUpLeg  -23.0099 -3.28528 -9.10518
LeftLeg  22.2558 10.6323 5.08511
LeftFoot  -2.12105 -0.343057 4.41134
LeftToes  5.08156e-010 -6.90346e-011 -6.33378e-011
2691
root  -1.86751 38.3339 34.0891 166.571 73.0422 163.829
RightUpLeg  -14.6254 -9.02374 -5.54618
RightLeg  67.3698 -0.0290403 -0.767839
RightFoot  -2.22014 -1.0109 12.4371
RightToes  1.218e-010 1.26228e-014 -6.01869e-014
Spine  -5.23661 5.53484 3.46182
Spine1  12.6986 7.37287 -7.97087
HEad  1.69882 65.7113 -15.7861
LeftShoulder1  0.115237 2.91969 -23.9725
LeftArm  0.461373 3.95701 -50.231
LeftForeArm  35.5807 1.60725 -13.3203
LeftHand  -0.0451337 4.75221 4.26098
RightShoulder  2.28658 4.2379 24.2471
RightArm  -30.2043 9.13977 57.124
RightForeArm  66.1014 -4.81398 -0.266332
RightHand  0.150494 -6.53419 -16.8362
LeftUpLeg  -21.6886 -4.56961 -9.17819
LeftLeg  23.0535 10.2397 5.09412
LeftFoot  -3.64895 -0.247946 4.01427
LeftToes  5.08156e-010 -6.90346e-011 -6.33378e-011
2692
root  -1.04104 38.4254 34.08 167.67 71.4415 165.064
RightUpLeg  -17.1143 -8.79424 -6.23891
RightLeg  66.787 -0.782095 -2.67872
RightFoot  -4.83793 -0.660703 11.0153
RightToes  1.218e-010 1.26228e-014 -6.01869e-014
Spine  -4.96367 5.34598 3.07568
Spine1  12.3006 7.09706 -7.80856
HEad  4.45649 65.7607 -13.5425
LeftShoulder1  0.147867 2.80702 -23.7231
LeftArm  0.41462 1.18572 -51.512
LeftForeArm  36.6857 1.11186 -13.1531
LeftHand  -0.0473666 4.68943 4.30689
RightShoulder  2.25247 4.0655 24.5035
RightArm  -31.0124 7.63795 55.4441
RightForeArm  65.4665 -4.79045 -0.539698
RightHand  0.132613 -6.41541 -16.7517
LeftUpLeg  -20.1688 -5.36875 -9.08657
LeftLeg  23.1297 9.51225 4.81296
LeftFoot  -4.96951 -0.174992 3.68125
LeftToes  5.08156e-010 -6.90346e-011 -6.33378e-011
2693
root  -0.243753 38.5648 34.1049 168.886 69.4351 166.195
RightUpLeg  -19.1519 -8.56762 -7.18888
RightLeg  63.7262 -2.07956 -5.16212
RightFoot  -7.26224 -0.420961 10.4025
RightToes  1.218e-010 1.26228e-014 -6.01869e-014
Spine  -4.82888 4.88585 2.34019
Spine1  11.8315 6.54187 -7.61713
HEad  6.783 65.6264 -11.5342
LeftShoulder1  0.220722 2.54974 -23.2038
LeftArm  2.15579 -1.37949 -52.8693
LeftForeArm  35.9699 0.259837 -13.4272
LeftHand  -0.0419133 4.59003 4.6013
RightShoulder  2.20676 3.86174 24.7426
RightArm  -31.5445 6.2137 53.8553
RightForeArm  64.9534 -4.78683 -0.669714
RightHand  0.122638 -6.34991 -16.6848
LeftUpLeg  -19.1634 -6.03963 -9.39695
LeftLeg  23.6003 9.95186 5.22593
LeftFoot  -5.32793 -0.106882 2.64604
LeftToes  5.08156e-010 -6.90346e-011 -6.33378e-011
2694
root  0.560885 38.6513 34.1413 170.478 67.4429 167.734
RightUpLeg  -20.6177 -7.76633 -8.10061
RightLeg  59.0605 -4.30966 -8.18756
RightFoot  -9.80107 -0.200337 9.91293
RightToes  1.218e-010 1.26228e-014 -6.01869e-014
Spine  -4.66946 4.31858 1.98119
Spine1  11.2069 5.90635 -7.34472
HEad  7.74543 65.5282 -10.6879
LeftShoulder1  0.321253 2.18603 -22.6467
LeftArm  3.14237 -3.84173 -54.2771
LeftForeArm  36.1953 -0.274836 -13.4821
LeftHand  -0.0440722 4.71737 4.48566
RightShoulder  2.13748 3.61273 24.8494
RightArm  -32.3511 4.77435 52.582
RightForeArm  64.3351 -4.75665 -0.975248
RightHand  0.0967325 -6.17605 -16.5306
LeftUpLeg  -17.6818 -6.11458 -8.87532
LeftLeg  22.9635 7.31606 4.04436
LeftFoot  -6.59892 -0.0711107 2.67684
LeftToes  5.08156e-010 -6.90346e-011 -6.33378e-011
2695
root  1.3556 38.7489 34.1828 172.173 65.3919 169.295
RightUpLeg  -21.7851 -6.36891 -9.23852
RightLeg  53.4653 -7.45836 -11.0349
RightFoot  -10.1417 -0.167099 9.3445
RightToes  1.218e-010 1.26228e-014 -6.01869e-014
Spine  -4.49721 3.71753 1.84981
Spine1  10.5166 5.23366 -6.8932
HEad  7.68752 65.3606 -10.7749
LeftShoulder1  0.414228 1.84333 -22.2502
LeftArm  4.64982 -6.30269 -55.5562
LeftForeArm  36.4208 -0.870663 -13.6179
LeftHand  -0.0437871 4.82752 4.53375
RightShoulder  2.06168 3.35507 24.9034
RightArm  -32.4751 3.22465 51.2445
RightForeArm  63.034 -4.82825 -0.82864
RightHand  0.0763642 -6.03951 -16.3554
LeftUpLeg  -16.1506 -6.32425 -8.15128
LeftLeg  21.9909 4.64933 2.91333
LeftFoot  -7.81102 -0.0408215 2.84998
LeftToes  5.08156e-010 -6.90346e-011 -6.33378e-011
2696
root  2.13305 38.821 34.2501 173.491 63.4193 170.36
RightUpLeg  -22.6719 -4.15681 -11.0112
RightLeg  47.3785 -9.89965 -11.6225
RightFoot  -9.61521 -0.204844 9.23182
RightToes  1.218e-010 1.26228e-014 -6.01869e-014
Spine  -4.30134 3.24157 1.7189
Spine1  9.95095 4.71554 -6.51933
HEad  6.83181 65.0414 -11.6541
LeftShoulder1  0.524008 1.43192 -21.8631
LeftArm  6.66524 -8.66579 -56.8539
LeftForeArm  36.3061 -1.52124 -13.8027
LeftHand  -0.0415295 4.76269 4.59044
RightShoulder  1.99517 3.12754 24.9615
RightArm  -32.2933 1.66379 49.7665
RightForeArm  61.8739 -4.92386 -0.508416
RightHand  0.0607647 -5.92371 -16.4397
LeftUpLeg  -15.1811 -6.67749 -7.56059
LeftLeg  21.7135 3.03651 2.32414
LeftFoot  -8.80544 -0.000437646 2.41287
LeftToes  5.08156e-010 -6.90346e-011 -6.33378e-011
2697
root  2.90513 38.8336 34.3412 174.367 61.5164 170.898
RightUpLeg  -23.2015 -1.54612 -13.3922
RightLeg  40.9488 -11.1359 -10.4398
RightFoot  -10.0911 -0.164424 8.75715
RightToes  1.218e-010 1.26228e-014 -6.01869e-014
Spine  -4.26367 2.92091 1.50927
Spine1  9.73289 4.36587 -6.13406
HEad  5.42031 64.5786 -13.1529
LeftShoulder1  0.648256 0.956257 -21.4649
LeftArm  8.21026 -10.7885 -58.2462
LeftForeArm  36.5058 -2.17109 -13.8601
LeftHand  -0.0400667 4.73686 4.6019
RightShoulder  1.91726 2.8745 24.9642
RightArm  -31.9114 0.382302 48.1887
RightForeArm  60.9098 -5.02023 -0.13979
RightHand  0.0420976 -5.78847 -16.4869
LeftUpLeg  -14.5864 -7.29081 -6.97243
LeftLeg  21.9742 1.773 1.79594
LeftFoot  -9.94505 0.0363982 1.91927
LeftToes  5.08156e-010 -6.90346e-011 -6.33378e-011
2698
root  3.6932 38.8067 34.4425 175.159 59.5564 171.464
RightUpLeg  -23.0753 1.38749 -16.1123
RightLeg  33.9637 -10.7435 -7.92581
RightFoot  -11.4547 -0.0697654 8.22748
RightToes  1.218e-010 1.26228e-014 -6.01869e-014
Spine  -4.13616 2.64912 1.54467
Spine1  9.61493 4.05261 -5.76532
HEad  4.41783 64.1937 -14.4169
LeftShoulder1  0.722741 0.671008 -21.2947
LeftArm  10.0438 -12.7011 -59.5077
LeftForeArm  36.1022 -2.85664 -13.9392
LeftHand  -0.040375 4.89615 4.66836
RightShoulder  1.87458 2.73154 24.9893
RightArm  -31.4839 -0.728867 46.4844
RightForeArm  60.1283 -5.10436 0.197005
RightHand  0.0419417 -5.77982 -16.7238
LeftUpLeg  -14.1104 -8.69727 -6.20923
LeftLeg  22.6548 1.20644 1.43042
LeftFoot  -11.2587 0.0666346 1.38881
LeftToes  5.08156e-010 -6.90346e-011 -6.33378e-011
2699
root  4.49097 38.7373 34.5594 176.17 57.5956 172.253
RightUpLeg  -22.7087 4.63307 -18.8986
RightLeg  26.9501 -8.63284 -4.95571
RightFoot  -12.6245 0.00188668 7.82062
RightToes  1.218e-010 1.26228e-014 -6.01869e-014
Spine  -3.97004 2.44551 1.95046
Spine1  9.37418 3.78322 -5.37762
HEad  3.98444 63.9682 -15.1721
LeftShoulder1  0.787993 0.417682 -21.1389
LeftArm  11.4096 -14.0023 -60.6752
LeftForeArm  35.9444 -3.50989 -13.9166
LeftHand  -0.0405916 4.85332 4.67501
RightShoulder  1.82111 2.5763 24.8901
RightArm  -31.2402 -1.68918 44.906
RightForeArm  60.0096 -5.13889 0.375786
RightHand  0.0519587 -5.84119 -16.9821
LeftUpLeg  -14.0384 -10.8486 -5.09921
LeftLeg  23.8942 1.33719 1.13088
LeftFoot  -12.7066 0.0856352 0.784883
LeftToes  5.08156e-010 -6.90346e-011 -6.33378e-011
